<?xml version="1.0" encoding="UTF-8"?>
<!DOCTYPE svg PUBLIC "-//W3C//DTD SVG 1.1//EN" "http://www.w3.org/Graphics/SVG/1.1/DTD/svg11.dtd">
<!-- Creator: CorelDRAW 2020 (64-Bit) -->
<svg xmlns="http://www.w3.org/2000/svg" xml:space="preserve" width="31.25in" height="31.25in" version="1.1" style="shape-rendering:geometricPrecision; text-rendering:geometricPrecision; image-rendering:optimizeQuality; fill-rule:evenodd; clip-rule:evenodd"
viewBox="0 0 31249.99 31249.99"
 xmlns:xlink="http://www.w3.org/1999/xlink"
 xmlns:xodm="http://www.corel.com/coreldraw/odm/2003">
 <defs>
  <style type="text/css">
   <![CDATA[
    .fil2 {fill:none}
    .fil0 {fill:#373F47}
    .fil1 {fill:#4B5259}
   ]]>
  </style>
 </defs>
 <g id="Layer_x0020_1">
  <metadata id="CorelCorpID_0Corel-Layer"/>
  <g id="_1562008479984">
   <g>
    <path class="fil0" d="M5988.88 3166.67l15852.61 0 0 3474.7 3409.18 0 0 21452.37 -19261.79 0 0 -24927.07zm1062.14 1374.54l13679.5 0 0 3091.48 3458.05 0 0 19086.51 -17137.54 0 0 -22177.99z"/>
    <polygon class="fil1" points="21841.49,3166.67 25250.67,6641.37 21841.49,6641.37 "/>
   </g>
   <path class="fil0" d="M8113.34 5784.73l11506.03 0 0 2815.06 3506.84 0 0 17379.95 -15012.87 0 0 -20195.01zm1173.12 4465.27l6338.54 0 0 1000 -6338.54 0 0 -1000zm0 -2373.46l8942.7 0 0 1041.67 -8942.7 0 0 -1041.67zm8994.79 10363.04l2125 0 0 6348.96 -2125 0 0 -6348.96zm-3718.76 3178.63l2125 0 0 3150 -2125 0 0 -3150zm-3723.96 -5788l2125 0 0 8958.33 -2125 0 0 -8958.33z"/>
  </g>
 </g>
 <rect class="fil2" x="13010.41" y="13020.83" width="5218.75" height="5218.75"/>
</svg>
